<svg width="46" height="52" viewBox="0 0 46 52" fill="none" xmlns="http://www.w3.org/2000/svg">
<path d="M22.6392 30.7535C27.1209 30.7535 30.754 27.1204 30.754 22.6387C30.754 18.157 27.1209 14.5239 22.6392 14.5239C18.1575 14.5239 14.5244 18.157 14.5244 22.6387C14.5244 27.1204 18.1575 30.7535 22.6392 30.7535Z" stroke="#427662" stroke-width="1.5" stroke-linecap="round" stroke-linejoin="round"/>
<path d="M37.9412 37.9404L26.4642 49.4174C25.4498 50.4308 24.0746 51 22.6408 51C21.2069 51 19.8318 50.4308 18.8174 49.4174L7.33766 37.9404C4.31144 34.914 2.2506 31.0583 1.41572 26.8607C0.580852 22.663 1.00945 18.3121 2.64732 14.3581C4.28519 10.4041 7.05877 7.02454 10.6173 4.64682C14.1759 2.2691 18.3596 1 22.6394 1C26.9193 1 31.103 2.2691 34.6615 4.64682C38.2201 7.02454 40.9937 10.4041 42.6315 14.3581C44.2694 18.3121 44.698 22.663 43.8631 26.8607C43.0283 31.0583 40.9674 34.914 37.9412 37.9404Z" stroke="#427662" stroke-width="1.5" stroke-linecap="round" stroke-linejoin="round"/>
</svg>
