<svg width="52" height="52" viewBox="0 0 52 52" fill="none" xmlns="http://www.w3.org/2000/svg">
<path d="M6.88235 1H18.6471L24.5294 15.7059L17.1765 20.1176C20.3263 26.5045 25.4955 31.6737 31.8824 34.8235L36.2941 27.4706L51 33.3529V45.1176C51 46.6777 50.3803 48.1739 49.2771 49.2771C48.1739 50.3803 46.6777 51 45.1176 51C33.6449 50.3028 22.824 45.4309 14.6966 37.3034C6.56913 29.176 1.6972 18.3551 1 6.88235C1 5.32226 1.61975 3.82606 2.7229 2.7229C3.82606 1.61975 5.32226 1 6.88235 1Z" stroke="#427662" stroke-width="1.5" stroke-linecap="round" stroke-linejoin="round"/>
<path d="M36.2939 15.7059L50.9998 1" stroke="#427662" stroke-width="1.5" stroke-linecap="round" stroke-linejoin="round"/>
<path d="M36.2939 3.94116V15.7059H48.0587" stroke="#427662" stroke-width="1.5" stroke-linecap="round" stroke-linejoin="round"/>
</svg>
