<svg width="59" height="53" viewBox="0 0 59 53" fill="none" xmlns="http://www.w3.org/2000/svg">
<path d="M1 51.694L5.11347 39.3536C1.55831 34.0955 0.272212 27.8688 1.49431 21.8312C2.7164 15.7935 6.36352 10.3558 11.7576 6.52897C17.1516 2.70219 23.9255 0.746778 30.8197 1.02631C37.714 1.30584 44.2595 3.8013 49.2392 8.04869C54.2189 12.2961 57.294 18.0064 57.8926 24.1179C58.4913 30.2294 56.5728 36.3261 52.4939 41.2746C48.4149 46.2231 42.4532 49.6866 35.717 51.0211C28.9808 52.3556 21.9287 51.4703 15.8718 48.5298L1 51.694Z" stroke="#427662" stroke-width="1.5" stroke-linecap="round" stroke-linejoin="round"/>
<path d="M29.478 26.3804V26.4114" stroke="#427662" stroke-width="5" stroke-linecap="round" stroke-linejoin="round"/>
<path d="M16.8208 26.3804V26.4114" stroke="#427662" stroke-width="5" stroke-linecap="round" stroke-linejoin="round"/>
<path d="M42.1348 26.3804V26.4114" stroke="#427662" stroke-width="5" stroke-linecap="round" stroke-linejoin="round"/>
</svg>
