<svg width="40" height="40" viewBox="0 0 40 40" fill="none" xmlns="http://www.w3.org/2000/svg">
<circle cx="20" cy="20" r="19.5" stroke="white"/>
<path d="M19.9995 22.5599C21.4133 22.5599 22.5595 21.4138 22.5595 19.9999C22.5595 18.5861 21.4133 17.4399 19.9995 17.4399C18.5856 17.4399 17.4395 18.5861 17.4395 19.9999C17.4395 21.4138 18.5856 22.5599 19.9995 22.5599Z" fill="white"/>
<path d="M23.52 12H16.48C15.2918 12 14.1523 12.472 13.3122 13.3122C12.472 14.1523 12 15.2918 12 16.48V23.52C12 24.7082 12.472 25.8477 13.3122 26.6878C14.1523 27.528 15.2918 28 16.48 28H23.52C24.7082 28 25.8477 27.528 26.6878 26.6878C27.528 25.8477 28 24.7082 28 23.52V16.48C28 15.2918 27.528 14.1523 26.6878 13.3122C25.8477 12.472 24.7082 12 23.52 12ZM20 23.84C19.2405 23.84 18.4981 23.6148 17.8666 23.1928C17.2351 22.7709 16.7429 22.1712 16.4523 21.4695C16.1617 20.7678 16.0856 19.9957 16.2338 19.2509C16.382 18.506 16.7477 17.8217 17.2847 17.2847C17.8217 16.7477 18.506 16.382 19.2509 16.2338C19.9957 16.0856 20.7678 16.1617 21.4695 16.4523C22.1712 16.7429 22.7709 17.2351 23.1928 17.8666C23.6148 18.4981 23.84 19.2405 23.84 20C23.84 21.0184 23.4354 21.9952 22.7153 22.7153C21.9952 23.4354 21.0184 23.84 20 23.84ZM24.16 16.8C23.9701 16.8 23.7845 16.7437 23.6267 16.6382C23.4688 16.5327 23.3457 16.3828 23.2731 16.2074C23.2004 16.032 23.1814 15.8389 23.2184 15.6527C23.2555 15.4665 23.3469 15.2954 23.4812 15.1612C23.6154 15.0269 23.7865 14.9355 23.9727 14.8984C24.1589 14.8614 24.352 14.8804 24.5274 14.9531C24.7028 15.0257 24.8527 15.1488 24.9582 15.3067C25.0637 15.4645 25.12 15.6501 25.12 15.84C25.12 16.0946 25.0189 16.3388 24.8388 16.5188C24.6588 16.6989 24.4146 16.8 24.16 16.8Z" fill="white"/>
</svg>
