<svg width="193" height="27" viewBox="0 0 193 27" fill="none" xmlns="http://www.w3.org/2000/svg">
<g clip-path="url(#clip0_159_350)">
<path d="M45.2343 1.07776H25.804L30.6299 7.23612H45.2299C48.9399 7.23612 51.9567 10.2801 51.9567 14.0235C51.9567 17.7669 48.9399 20.8153 45.2299 20.8153H34.6494L19.6614 1.07776L0 26.9737H7.75557L19.6614 11.0631L31.5716 26.9737H31.6588H39.3228H45.2343C52.3098 26.9737 58.0644 21.1672 58.0644 14.0235C58.0644 6.87981 52.3098 1.07776 45.2343 1.07776Z" fill="#272727"/>
<path d="M58.6402 27.0044C59.8103 27.0044 60.7589 26.0473 60.7589 24.8666C60.7589 23.6859 59.8103 22.7288 58.6402 22.7288C57.4701 22.7288 56.5215 23.6859 56.5215 24.8666C56.5215 26.0473 57.4701 27.0044 58.6402 27.0044Z" fill="#272727"/>
<path d="M83.2327 13.2492H80.277L79.2699 10.3592H74.4963L73.45 13.2492H70.5684L75.451 0.290283H78.3501L83.2327 13.2492ZM76.894 3.47064L75.1807 8.28735H78.5855L76.894 3.47064Z" fill="#272727"/>
<path d="M86.9991 13.2494H84.1523V10.4121H86.9991V13.2494Z" fill="#272727"/>
<path d="M89.3457 0.307861H94.5335C98.5138 0.307861 100.75 2.59965 100.75 6.77854C100.75 10.9398 98.5181 13.2492 94.5335 13.2492H89.3457V0.307861ZM94.1891 10.887C96.7656 10.887 97.9165 9.37824 97.9165 6.77854C97.9165 4.17883 96.7264 2.67003 94.1891 2.67003H92.1358V10.887H94.1891Z" fill="#272727"/>
<path d="M105.501 13.2492H102.672V0.307861H105.501V13.2492Z" fill="#272727"/>
<path d="M117.517 2.72722H113.664V13.2492H110.834V2.72722H106.98V0.307861H117.517V2.72722Z" fill="#272727"/>
<path d="M125.372 5.4149L130.865 13.2492H127.334L123.445 7.43396L121.806 9.07032V13.2492H119.033V0.307861H121.806V5.68763L126.85 0.307861H130.398L125.372 5.4149Z" fill="#272727"/>
<path d="M144.088 6.79619C144.088 10.8299 141.546 13.5572 137.784 13.5572C133.983 13.5572 131.445 10.8475 131.445 6.79619C131.445 2.68768 133.969 0 137.806 0C141.551 0 144.088 2.74487 144.088 6.79619ZM134.292 6.7434C134.292 9.52346 135.626 11.195 137.806 11.217C139.933 11.217 141.245 9.51026 141.245 6.7434C141.245 4.01613 139.911 2.32698 137.771 2.32698C135.644 2.32698 134.292 4.05132 134.292 6.7434Z" fill="#272727"/>
<path d="M147.567 0.307861L150.448 9.39584L153.369 0.307861H156.286L152.018 13.2492H148.831L144.633 0.307861H147.567Z" fill="#272727"/>
<path d="M164.193 4.16125C164.084 2.90759 163.255 2.23457 161.76 2.23457C160.461 2.23457 159.689 2.78002 159.689 3.70817C159.689 4.83427 161.058 4.92665 163.617 5.65245C165.906 6.30788 167.362 7.19644 167.362 9.36067C167.362 12.4135 164.694 13.5396 162.083 13.5396C158.608 13.5396 156.551 11.8504 156.516 8.92078H159.306C159.358 10.6671 160.496 11.3577 162.205 11.3577C163.683 11.3577 164.581 10.7023 164.581 9.63339C164.581 8.61726 163.718 8.43251 161.067 7.67152C158.979 7.07328 156.978 6.54542 156.978 3.91052C156.978 1.56594 158.922 0.0395508 161.913 0.0395508C164.616 0.0395508 166.795 1.27562 166.848 4.16565H164.193V4.16125Z" fill="#272727"/>
<path d="M175.436 5.4149L180.929 13.2492H177.398L173.509 7.43396L171.87 9.07032V13.2492H169.098V0.307861H171.87V5.68763L176.914 0.307861H180.463L175.436 5.4149Z" fill="#272727"/>
<path d="M188.226 8.26974V13.2492H185.454V8.21695L180.658 0.307861H183.867L186.857 5.48968L189.883 0.307861H193L188.226 8.26974Z" fill="#272727"/>
<path d="M77.3947 26.7008H71.7012V18.0308H72.8346V25.7023H77.3947V26.7008Z" fill="#272727"/>
<path d="M85.355 26.7008H84.0864L83.1317 24.0484H79.522L78.5455 26.7008H77.3379L80.7165 18.0308H81.9939L85.355 26.7008ZM81.3356 19.1261L79.8533 23.1334H82.796L81.3356 19.1261Z" fill="#272727"/>
<path d="M86.3094 18.0308L88.0096 25.2756L89.954 18.0308H91.1964L93.1146 25.2756L94.8759 18.0308H96.0093L93.7162 26.7008H92.5217L90.5425 19.4428L88.5371 26.7008H87.3426L85.1367 18.0308H86.3094Z" fill="#272727"/>
<path d="M106.107 19.0293H101.594V21.7346H105.575V22.6979H101.594V26.7052H100.461V18.0308H106.107V19.0293Z" fill="#272727"/>
<path d="M108.557 26.7008H107.424V18.0308H108.557V26.7008Z" fill="#272727"/>
<path d="M114.275 18.0308C115.893 18.0308 117.161 18.5674 117.161 20.4281C117.161 21.4399 116.568 22.28 115.688 22.5352C116.895 22.7903 116.943 23.6173 116.991 24.6642C117.026 25.3592 117.026 26.2346 117.484 26.6964H116.18C115.901 26.2566 115.915 25.2844 115.893 24.783C115.819 23.3225 115.448 22.9443 113.892 22.9443H111.633V26.6964H110.5V18.0308H114.275ZM111.629 22.0337H113.765C114.877 22.0337 116.024 21.9237 116.024 20.4985C116.024 19.2096 115.082 19.0029 114.07 19.0029H111.633V22.0337H111.629Z" fill="#272727"/>
<path d="M120.34 18.0308L123.104 25.3724L125.772 18.0308H127.354V26.7008H126.282V19.4648L123.592 26.6964H122.603L119.865 19.4648V26.7008H118.779V18.0308H120.34Z" fill="#272727"/>
</g>
<defs>
<clipPath id="clip0_159_350">
<rect width="193" height="27" fill="white"/>
</clipPath>
</defs>
</svg>
