<svg width="25" height="24" viewBox="0 0 25 24" fill="none" xmlns="http://www.w3.org/2000/svg">
<path d="M12.3027 0.361084C12.3606 1.91787 12.0966 3.46986 11.5273 4.91998C10.958 6.37009 10.0956 7.68713 8.99404 8.78871C7.89246 9.89028 6.57542 10.7527 5.1253 11.322C3.67519 11.8913 2.12319 12.1552 0.566406 12.0973C2.12319 12.0394 3.67519 12.3033 5.1253 12.8726C6.57542 13.4419 7.89246 14.3044 8.99404 15.4059C10.0956 16.5075 10.958 17.8245 11.5273 19.2747C12.0966 20.7248 12.3606 22.2768 12.3027 23.8336C12.2447 22.2768 12.5087 20.7248 13.078 19.2747C13.6473 17.8246 14.5097 16.5075 15.6113 15.4059C16.7129 14.3044 18.0299 13.442 19.48 12.8727C20.9301 12.3033 22.4821 12.0394 24.0389 12.0973C22.4821 12.1552 20.9301 11.8913 19.48 11.322C18.0299 10.7527 16.7129 9.89027 15.6113 8.7887C14.5097 7.68712 13.6473 6.37008 13.078 4.91997C12.5087 3.46986 12.2447 1.91787 12.3027 0.361084Z" fill="#BBBEBC"/>
</svg>
