<svg width="40" height="40" viewBox="0 0 40 40" fill="none" xmlns="http://www.w3.org/2000/svg">
<circle cx="20" cy="20" r="19.5" stroke="white"/>
<path d="M29.5419 16.0915C29.5419 14.451 28.3352 13.1312 26.8441 13.1312C24.8245 13.0365 22.7647 13 20.6611 13C20.5518 13 20.4424 13 20.333 13C20.2237 13 20.1143 13 20.0049 13C17.9051 13 15.8416 13.0365 13.8219 13.1312C12.3345 13.1312 11.1278 14.4583 11.1278 16.0988C11.0367 17.3966 10.9966 18.6945 11.0002 19.9923C10.9966 21.2902 11.0367 22.588 11.1242 23.8895C11.1242 25.53 12.3309 26.8607 13.8183 26.8607C15.9401 26.9591 18.1165 27.0029 20.3294 26.9992C22.5459 27.0065 24.7151 26.9628 26.8405 26.8607C28.3316 26.8607 29.5383 25.53 29.5383 23.8895C29.6258 22.588 29.6659 21.2902 29.6622 19.9887C29.6695 18.6908 29.6294 17.393 29.5419 16.0915ZM18.5467 23.5687V16.405L23.8328 19.985L18.5467 23.5687Z" fill="white"/>
</svg>
